<?xml version="1.0" encoding="UTF-8"?>
<!-- Generator: Adobe Illustrator 16.0.4, SVG Export Plug-In . SVG Version: 6.00 Build 0)  -->
<svg xmlns="http://www.w3.org/2000/svg" xmlns:xlink="http://www.w3.org/1999/xlink" id="gr_x5F_iCalendar_x5F_02" x="0px" y="0px" width="250px" height="250px" viewBox="0 0 250 250" xml:space="preserve">
<g id="gr_x5F_big_67_">
	<path id="gr_277_" fill="#F3BA48" d="M237.664,172.702c0,9.539-6.76,21.251-15.021,26.019l-82.621,47.701   c-8.263,4.771-21.78,4.771-30.043,0l-82.621-47.701c-8.263-4.768-15.022-16.479-15.022-26.019V77.298   c0-9.539,6.759-21.25,15.022-26.018l82.621-47.702c8.263-4.771,21.78-4.771,30.043,0l82.621,47.702   c8.262,4.768,15.021,16.479,15.021,26.018V172.702z"></path>
	<g>
		<path fill="#FFFFFF" d="M187.5,108.841v-5.145c0-14.91-12.099-26.999-27.026-26.999H89.526c-14.928,0-27.026,12.088-27.026,26.999    v5.145H187.5z M148.884,78.902c5.912-0.038,10.749,4.723,10.784,10.64c0.042,5.924-4.729,10.746-10.641,10.785    c-5.919,0.039-10.746-4.723-10.788-10.641C138.204,83.768,142.969,78.941,148.884,78.902z M94.566,78.902    c5.915-0.038,10.749,4.723,10.784,10.64c0.041,5.924-4.727,10.746-10.638,10.785c-5.919,0.039-10.749-4.723-10.788-10.641    C83.887,83.768,88.651,78.941,94.566,78.902z"></path>
		<path fill="#FFFFFF" d="M187.5,114.519v31.778c0,14.91-12.099,27.002-27.026,27.002H89.526c-14.928,0-27.026-12.092-27.026-27.002    v-31.778H187.5z"></path>
		<g>
			<path fill="#FFFFFF" d="M87.496,73.315l0.008,8.712c-0.004,3.931,3.198,7.136,7.139,7.14c3.938-0.004,7.144-3.209,7.14-7.147     l-0.007-8.712c0-3.931-3.202-7.139-7.14-7.139C90.694,66.172,87.493,69.377,87.496,73.315L87.496,73.315z"></path>
			<path fill="#F3BA48" d="M90.841,72.087c0-2.1,1.699-3.791,3.795-3.802c2.097,0.007,3.795,1.702,3.795,3.802l0.007,11.161     c-0.004,2.096-1.698,3.788-3.795,3.798c-2.096-0.003-3.794-1.699-3.794-3.798L90.841,72.087 M85.484,72.091l0.01,11.164     c-0.003,5.036,4.099,9.145,9.148,9.149c5.047-0.004,9.152-4.109,9.152-9.159l-0.007-11.164c-0.004-5.04-4.109-9.152-9.152-9.148     C89.586,62.936,85.484,67.041,85.484,72.091L85.484,72.091z"></path>
		</g>
		<g>
			<path fill="#FFFFFF" d="M141.811,73.315l0.007,8.712c0,3.931,3.202,7.136,7.144,7.14c3.934-0.004,7.139-3.209,7.136-7.147     l-0.007-8.712c0-3.931-3.202-7.139-7.136-7.139C145.013,66.172,141.811,69.377,141.811,73.315L141.811,73.315z"></path>
			<path fill="#F3BA48" d="M145.159,72.087c0-2.1,1.695-3.791,3.795-3.802c2.092,0.007,3.794,1.702,3.794,3.802l0.007,11.161     c-0.007,2.096-1.701,3.788-3.794,3.798c-2.1-0.003-3.799-1.699-3.795-3.798L145.159,72.087 M139.802,72.091l0.007,11.164     c0,5.036,4.102,9.145,9.152,9.149c5.043-0.004,9.151-4.109,9.148-9.159l-0.008-11.164c-0.003-5.04-4.104-9.152-9.147-9.148     C143.903,62.936,139.799,67.041,139.802,72.091L139.802,72.091z"></path>
		</g>
	</g>
	<g>
		<path fill="#F3BA48" d="M120.438,131.966c0,3.944-3.195,7.143-7.144,7.143h-3.571c-3.941,0-7.143-3.198-7.143-7.143v-3.571    c0-3.946,3.201-7.145,7.143-7.145h3.571c3.948,0,7.144,3.199,7.144,7.145V131.966z"></path>
		<path fill="#F3BA48" d="M147.419,131.966c0,3.944-3.201,7.143-7.143,7.143h-3.571c-3.948,0-7.144-3.198-7.144-7.143v-3.571    c0-3.946,3.195-7.145,7.144-7.145h3.571c3.941,0,7.143,3.199,7.143,7.145V131.966z"></path>
		<path fill="#F3BA48" d="M174.394,131.966c0,3.944-3.195,7.143-7.144,7.143h-3.571c-3.941,0-7.143-3.198-7.143-7.143v-3.571    c0-3.946,3.201-7.145,7.143-7.145h3.571c3.948,0,7.144,3.199,7.144,7.145V131.966z"></path>
	</g>
	<g>
		<path fill="#F3BA48" d="M93.464,155.814c0,3.944-3.201,7.144-7.143,7.144H82.75c-3.948,0-7.144-3.199-7.144-7.144v-3.571    c0-3.944,3.195-7.143,7.144-7.143h3.571c3.941,0,7.143,3.198,7.143,7.143V155.814z"></path>
		<path fill="#F3BA48" d="M120.438,155.814c0,3.944-3.195,7.144-7.144,7.144h-3.571c-3.941,0-7.143-3.199-7.143-7.144v-3.571    c0-3.944,3.201-7.143,7.143-7.143h3.571c3.948,0,7.144,3.198,7.144,7.143V155.814z"></path>
		<path fill="#F3BA48" d="M147.419,155.814c0,3.944-3.201,7.144-7.143,7.144h-3.571c-3.948,0-7.144-3.199-7.144-7.144v-3.571    c0-3.944,3.195-7.143,7.144-7.143h3.571c3.941,0,7.143,3.198,7.143,7.143V155.814z"></path>
		<path fill="#F3BA48" d="M174.394,155.814c0,3.944-3.195,7.144-7.144,7.144h-3.571c-3.941,0-7.143-3.199-7.143-7.144v-3.571    c0-3.944,3.201-7.143,7.143-7.143h3.571c3.948,0,7.144,3.198,7.144,7.143V155.814z"></path>
	</g>
</g>
</svg>
